{
	"asset":{
		"generator":"Khronos glTF Blender I/O v5.0.21",
		"version":"2.0"
	},
	"scene":0,
	"scenes":[
		{
			"name":"Scene",
			"nodes":[
				0,
				1,
				2
			]
		}
	],
	"nodes":[
		{
			"name":"GOOGLE_SAT_WM"
		},
		{
			"mesh":0,
			"name":"EXPORT_GOOGLE_SAT_WM"
		},
		{
			"mesh":1,
			"name":"Areas:building"
		}
	],
	"materials":[
		{
			"doubleSided":true,
			"name":"rastMat",
			"pbrMetallicRoughness":{
				"baseColorTexture":{
					"index":0
				},
				"metallicFactor":0,
				"roughnessFactor":0.5
			}
		}
	],
	"meshes":[
		{
			"name":"EXPORT_GOOGLE_SAT_WM",
			"primitives":[
				{
					"attributes":{
						"POSITION":0,
						"NORMAL":1,
						"TEXCOORD_0":2,
						"TEXCOORD_1":3
					},
					"indices":4,
					"material":0
				}
			]
		},
		{
			"name":"Areas:building",
			"primitives":[
				{
					"attributes":{
						"POSITION":5,
						"NORMAL":6
					},
					"indices":7
				}
			]
		}
	],
	"textures":[
		{
			"sampler":0,
			"source":0
		}
	],
	"images":[
		{
			"mimeType":"image/png",
			"name":"EXPORT_GOOGLE_SAT_WM",
			"uri":"EXPORT_GOOGLE_SAT_WM.png"
		}
	],
	"accessors":[
		{
			"bufferView":0,
			"componentType":5126,
			"count":8,
			"max":[
				750.2660522460938,
				0,
				593.4451904296875
			],
			"min":[
				-778.4744873046875,
				-82.53416442871094,
				-629.5472412109375
			],
			"type":"VEC3"
		},
		{
			"bufferView":1,
			"componentType":5126,
			"count":8,
			"type":"VEC3"
		},
		{
			"bufferView":2,
			"componentType":5126,
			"count":8,
			"type":"VEC2"
		},
		{
			"bufferView":3,
			"componentType":5126,
			"count":8,
			"type":"VEC2"
		},
		{
			"bufferView":4,
			"componentType":5123,
			"count":36,
			"type":"SCALAR"
		},
		{
			"bufferView":5,
			"componentType":5126,
			"count":11432,
			"max":[
				760.114990234375,
				90,
				611.7747192382812
			],
			"min":[
				-847.5499267578125,
				0,
				-639.8837890625
			],
			"type":"VEC3"
		},
		{
			"bufferView":6,
			"componentType":5126,
			"count":11432,
			"type":"VEC3"
		},
		{
			"bufferView":7,
			"componentType":5123,
			"count":18648,
			"type":"SCALAR"
		}
	],
	"bufferViews":[
		{
			"buffer":0,
			"byteLength":96,
			"byteOffset":0,
			"target":34962
		},
		{
			"buffer":0,
			"byteLength":96,
			"byteOffset":96,
			"target":34962
		},
		{
			"buffer":0,
			"byteLength":64,
			"byteOffset":192,
			"target":34962
		},
		{
			"buffer":0,
			"byteLength":64,
			"byteOffset":256,
			"target":34962
		},
		{
			"buffer":0,
			"byteLength":72,
			"byteOffset":320,
			"target":34963
		},
		{
			"buffer":0,
			"byteLength":137184,
			"byteOffset":392,
			"target":34962
		},
		{
			"buffer":0,
			"byteLength":137184,
			"byteOffset":137576,
			"target":34962
		},
		{
			"buffer":0,
			"byteLength":37296,
			"byteOffset":274760,
			"target":34963
		}
	],
	"samplers":[
		{
			"magFilter":9729,
			"minFilter":9987,
			"wrapS":33071,
			"wrapT":33071
		}
	],
	"buffers":[
		{
			"byteLength":312056,
			"uri":"%EB%B6%80%EC%B2%9C%EC%8B%9C.bin"
		}
	]
}
